<?xml version="1.0" encoding="UTF-8" standalone="no"?>
<svg width="87px" height="33px" viewBox="0 0 87 33" version="1.1" xmlns="http://www.w3.org/2000/svg" xmlns:xlink="http://www.w3.org/1999/xlink">
    <!-- Generator: sketchtool 39.1 (31720) - http://www.bohemiancoding.com/sketch -->
    <title>150BA5BF-AA1D-45CE-B2C0-F32C3CB9F3FC</title>
    <desc>Created with sketchtool.</desc>
    <defs></defs>
    <g id="Website" stroke="none" stroke-width="1" fill="none" fill-rule="evenodd" stroke-linecap="round" stroke-linejoin="round">
        <g id="Home" transform="translate(-82.000000, -25.000000)" stroke="#CDCDCD" stroke-width="2.5">
            <g id="Header" transform="translate(0.000000, -1.000000)">
                <g id="Pallette" transform="translate(83.000000, 28.000000)">
                    <path d="M83.8275931,18.8542868 C82.5283604,19.6074898 80.8523953,20.1739136 78.75,20.1739136 C74.375,20.1739135 73.7660079,16.9682035 74.7349528,13.8656956 C75.6311592,10.9408322 77.839349,9.11220686 79.375,8.83049808 C83.6511995,8.04604705 84.375,13.8656957 79.375,15.1304348 C77.7542101,15.54041 75.625,15.4456522 75.625,15.4456522" id="Path-2"></path>
                    <path d="M67.5,15.1304344 C68.75,11.3478257 71.8671807,4.15633379 72.5,0.630434783 C72.831054,-0.312050753 73.5242882,0.0307076804 73.125,0.630434783 C71.4792307,5.10910429 69.375,10.0869567 67.5,15.1304347 C65.625,20.1739127 69.2500001,20.1739123 69.375,20.1739131 C70.731386,20.1739216 72.505982,18.9084871 74.375,15.1304344" id="Path-2-Copy-9"></path>
                    <path d="M60.625,15.1304344 C61.875,11.3478257 64.9921807,4.15633379 65.625,0.630434783 C65.956054,-0.312050753 66.6492882,0.0307076804 66.25,0.630434783 C64.6042307,5.10910429 62.5,10.0869567 60.625,15.1304347 C58.75,20.1739127 62.3750001,20.1739123 62.5,20.1739131 C63.856386,20.1739216 65.630982,18.9084871 67.5,15.1304344" id="Path-2-Copy-9"></path>
                    <path d="M76.25,5.04347826 C76.25,5.04347826 67.5331508,7.82637837 59.375,6.13998025" id="Path-5"></path>
                    <path d="M48.75,15.4456522 C48.75,15.4456522 50.8792101,15.54041 52.5,15.1304348 C57.5,13.8656957 56.7761995,8.04604705 52.5,8.83049808 C50.964349,9.11220686 48.7561592,10.9408322 47.8599528,13.8656956 C46.8910079,16.9682035 47.5,20.1739135 51.875,20.1739136 C56.9290163,20.1739137 60.5813599,15.1361296 60.5813599,15.1361296" id="Path-2"></path>
                    <path d="M40.625,15.1304344 C41.875,11.3478257 44.9921807,4.15633379 45.625,0.630434783 C45.956054,-0.312050753 46.6492882,0.0307076804 46.25,0.630434783 C44.6042307,5.10910429 42.5,10.0869567 40.625,15.1304347 C38.75,20.1739127 42.3750001,20.1739123 42.5,20.1739131 C43.856386,20.1739216 45.630982,18.9084871 47.5,15.1304344" id="Path-2-Copy-9"></path>
                    <path d="M33.75,15.1304344 C35,11.3478257 38.1171807,4.15633379 38.75,0.630434783 C39.081054,-0.312050753 39.7742882,0.0307076804 39.375,0.630434783 C37.7292307,5.10910429 35.625,10.0869567 33.75,15.1304347 C31.875,20.1739127 35.5000001,20.1739123 35.625,20.1739131 C36.981386,20.1739216 38.755982,18.9084871 40.625,15.1304344" id="Path-2-Copy-9"></path>
                    <path d="M27.4974528,10.7954571 C25,6.93478261 20.1898944,9.16200607 18.7474528,13.8695651 C17.7785079,16.972073 18.7474528,20.173913 21.8766383,20.173913 C24.3829844,20.173913 26.2474531,17.6521738 26.8724528,15.1304348 C25,20.1739128 28.6250001,20.1739128 28.7474528,20.1739131 C30,20.1739128 31.875,18.9130432 33.75,15.1304345" id="Path-2"></path>
                    <path d="M1.03724162,23.9113908 C2.28724161,20.1287821 5.40442228,12.9372901 6.03724163,9.41139112 C6.3682956,8.46890559 7.06152988,8.81166402 6.66224163,9.41139112 C5.01647234,13.8900606 2.91224163,18.867913 1.03724163,23.9113911 C-0.83775837,28.9548691 2.78724175,28.9548686 2.91224161,28.9548694" id="Path-2-Copy-9" transform="translate(3.641368, 18.890478) rotate(-180.000000) translate(-3.641368, -18.890478) "></path>
                    <path d="M14.4427493,10.669216 C12.432346,7.06176743 7.69244161,9.16200607 6.25,13.8695651 C5.2810551,16.972073 6.25,20.173913 9.37918552,20.173913 C11.812177,20.173913 13.6403135,17.797624 14.3169532,15.3517871 C14.3195674,15.3423373 15.4656222,12.5046495 14.4427493,10.669216 Z" id="Path-2" transform="translate(10.378727, 14.509972) rotate(-360.000000) translate(-10.378727, -14.509972) "></path>
                </g>
            </g>
        </g>
    </g>
</svg>